<?xml version="1.0" encoding="UTF-8" standalone="no"?>
<svg
   viewBox="0 0 36 36"
   version="1.1"
   id="svg6"
   sodipodi:docname="bible.svg"
   xml:space="preserve"
   inkscape:version="1.3.2 (091e20e, 2023-11-25, custom)"
   inkscape:export-filename="bible.png"
   inkscape:export-xdpi="533.33331"
   inkscape:export-ydpi="533.33331"
   xmlns:inkscape="http://www.inkscape.org/namespaces/inkscape"
   xmlns:sodipodi="http://sodipodi.sourceforge.net/DTD/sodipodi-0.dtd"
   xmlns="http://www.w3.org/2000/svg"
   xmlns:svg="http://www.w3.org/2000/svg"><defs
     id="defs6" /><sodipodi:namedview
     id="namedview6"
     pagecolor="#ffffff"
     bordercolor="#000000"
     borderopacity="0.25"
     inkscape:showpageshadow="2"
     inkscape:pageopacity="0.0"
     inkscape:pagecheckerboard="0"
     inkscape:deskcolor="#d1d1d1"
     inkscape:zoom="16.440233"
     inkscape:cx="19.70775"
     inkscape:cy="18.521636"
     inkscape:window-width="1841"
     inkscape:window-height="1051"
     inkscape:window-x="-9"
     inkscape:window-y="-9"
     inkscape:window-maximized="1"
     inkscape:current-layer="svg6" /><path
     fill="#269"
     d="M35 26c0 2.209-1.791 4-4 4H5c-2.209 0-4-1.791-4-4V6.313C1 4.104 6.791 0 9 0h20.625C32.719 0 35 2.312 35 5.375V26z"
     id="path1"
     style="fill:#502d16" /><path
     fill="#CCD6DD"
     d="M33 30c0 2.209-1.791 4-4 4H7c-2.209 0-4-1.791-4-4V6c0-4.119-.021-4 5-4h21c2.209 0 4 1.791 4 4v24z"
     id="path2" /><path
     fill="#E1E8ED"
     d="M31 31c0 1.657-1.343 3-3 3H4c-1.657 0-3-1.343-3-3V7c0-1.657 1.343-3 3-3h24c1.657 0 3 1.343 3 3v24z"
     id="path3" /><path
     fill="#3B88C3"
     d="M31 32c0 2.209-1.791 4-4 4H6c-2.209 0-4-1.791-4-4V10c0-2.209 1.791-4 4-4h21c2.209 0 4 1.791 4 4v22z"
     id="path4"
     style="fill:#784421" /><path
     fill="#55ACEE"
     d="M29 32c0 2.209-1.791 4-4 4H6c-2.209 0-4-1.791-4-4V12c0-2.209 1.791-4 4-4h19.335C27.544 8 29 9.456 29 11.665V32z"
     id="path5"
     style="fill:#a05a2c" /><path
     fill="#269"
     d="M6 6C4.312 6 4.269 4.078 5 3.25 5.832 2.309 7.125 2 9.438 2H11V0H8.281C4.312 0 1 2.5 1 5.375V32c0 2.209 1.791 4 4 4h2V6H6z"
     id="path6"
     style="fill:#502d16" /><g
     id="g11"
     transform="translate(0.12626411,0.18709054)"><path
       fill="#ffffff"
       d="m 23.532331,16.506397 h -4.613823 v -4.01706 c 0,-0.369569 -0.34373,-0.66951 -0.76897,-0.66951 h -1.537941 c -0.424472,0 -0.76897,0.299941 -0.76897,0.66951 v 4.01706 h -4.613824 c -0.424471,0 -0.76897,0.29994 -0.76897,0.66951 v 1.33902 c 0,0.369569 0.344499,0.66951 0.76897,0.66951 h 4.613824 v 12.051178 c 0,0.370239 0.344498,0.669511 0.76897,0.669511 h 1.537941 c 0.42524,0 0.76897,-0.299272 0.76897,-0.669511 V 19.184437 h 4.613823 c 0.425241,0 0.768971,-0.299941 0.768971,-0.66951 v -1.33902 c 0,-0.36957 -0.34373,-0.66951 -0.768971,-0.66951 z"
       id="path2-3"
       style="stroke-width:0.717519" /></g></svg>
