<?xml version="1.0" encoding="UTF-8" standalone="no"?>
<svg
   width="128"
   height="128"
   style="enable-background:new 0 0 128 128;"
   version="1.1"
   id="svg13"
   sodipodi:docname="cat_black_bigeyes.svg"
   xml:space="preserve"
   inkscape:version="1.3.2 (091e20e, 2023-11-25, custom)"
   inkscape:export-filename="..\ooocat_black.png"
   inkscape:export-xdpi="384"
   inkscape:export-ydpi="384"
   xmlns:inkscape="http://www.inkscape.org/namespaces/inkscape"
   xmlns:sodipodi="http://sodipodi.sourceforge.net/DTD/sodipodi-0.dtd"
   xmlns="http://www.w3.org/2000/svg"
   xmlns:svg="http://www.w3.org/2000/svg"><defs
     id="defs13" /><sodipodi:namedview
     id="namedview13"
     pagecolor="#ffffff"
     bordercolor="#000000"
     borderopacity="0.25"
     inkscape:showpageshadow="2"
     inkscape:pageopacity="0.0"
     inkscape:pagecheckerboard="0"
     inkscape:deskcolor="#d1d1d1"
     showgrid="false"
     inkscape:zoom="4.6238154"
     inkscape:cx="70.396409"
     inkscape:cy="40.98347"
     inkscape:window-width="1841"
     inkscape:window-height="1051"
     inkscape:window-x="-9"
     inkscape:window-y="-9"
     inkscape:window-maximized="1"
     inkscape:current-layer="svg13" /><g
     id="g13"
     transform="matrix(1.015246,0,0,1.015246,-1.3654551,-1.0297437)"><path
       d="m 125.47,86.16 -8.27,-1.49 c 0.1,-1.84 0.09,-3.7 0,-5.56 l 8.4,-1.25 c 1.17,-0.17 1.97,-1.26 1.8,-2.42 -0.17,-1.16 -1.26,-1.96 -2.42,-1.8 l -8.18,1.22 c -0.9,-5.98 -3.2,-11.94 -6.68,-17.31 1.05,-10.02 3.06,-37.18 -5.09,-42.65 -6.5,-4.36 -21.96,11.82 -26.94,17.63 -1.15,1.34 -2.2,2.55 -3.16,3.65 -3.48,-0.53 -7.02,-0.82 -10.55,-0.82 -3.53,-0.01 -7.06,0.29 -10.54,0.82 -0.96,-1.1 -2.01,-2.31 -3.16,-3.65 C 45.7,26.72 30.24,10.54 23.75,14.9 15.6,20.37 17.62,47.53 18.66,57.55 15.19,62.91 12.87,68.88 11.98,74.86 L 3.8,73.64 C 2.64,73.48 1.55,74.27 1.37,75.44 1.19,76.6 2,77.69 3.16,77.86 l 8.4,1.25 c -0.09,1.86 -0.1,3.72 0,5.56 L 3.3,86.16 c -1.16,0.21 -1.93,1.32 -1.72,2.48 0.19,1.03 1.08,1.75 2.1,1.75 0.12,0 0.25,-0.01 0.38,-0.03 L 12,88.93 c 0.33,2.1 0.81,4.17 1.5,6.18 l -6.48,2.05 c -1.12,0.36 -1.74,1.56 -1.39,2.68 0.29,0.91 1.13,1.49 2.03,1.49 0.22,0 0.43,-0.03 0.65,-0.1 l 6.85,-2.17 c 1.98,3.89 4.88,7.47 8.98,10.53 6.05,4.51 13.57,7.57 21.33,9.23 2.94,0.63 10.56,2.1 18.55,2.1 7.99,0 16.35,-1.47 19.3,-2.1 7.75,-1.66 15.28,-4.72 21.33,-9.23 4.1,-3.06 7,-6.64 8.98,-10.53 l 6.84,2.17 c 0.22,0.07 0.43,0.1 0.65,0.1 0.9,0 1.74,-0.58 2.03,-1.49 0.36,-1.12 -0.26,-2.32 -1.38,-2.68 l -6.48,-2.06 c 0.69,-2 1.18,-4.07 1.5,-6.18 l 7.95,1.43 c 0.12,0.02 0.25,0.03 0.38,0.03 1.01,0 1.91,-0.73 2.1,-1.75 0.18,-1.15 -0.6,-2.26 -1.75,-2.47 z"
       style="display:inline;fill:#494949;fill-opacity:1"
       id="path1" /><g
       id="g12"
       style="display:inline"
       transform="matrix(0.8,0,0,0.8,12.901,20.023)"><g
         id="g11"
         style="display:inline"
         inkscape:label="g11"><path
           d="m 70.95,102.23192 c 0.21,0.31784 -0.17,0.82913 -0.28,1.11933 -0.14,0.3662 -0.27,0.72549 -0.43,1.07787 -0.76,1.74118 -2.06,3.3718 -4.85,3.75182 -2.58,0.35238 -5.06,-0.86368 -6.03,-2.47358 -0.36,-0.5873 -0.64,-1.19533 -0.94,-1.79645 -0.16,-0.33165 -0.32,-0.6633 -0.47,-0.98804 -0.11,-0.23493 -0.4,-0.60803 -0.36,-0.84986 1.42,-0.0622 3.07,-0.50439 4.29,-1.00187 0.4,-0.16583 0.85,-0.25565 1.22,-0.45602 0.33,-0.17965 0.54,-0.4353 0.96,-0.52512 0.42,0.31092 1.13,0.48366 1.65,0.72549 0.63,0.2902 1.27,0.54584 1.95,0.76695 0.63,0.20728 1.38,0.20728 2.03,0.32474 0.34,0.0622 0.91,0.0276 1.16,0.22801 0.05,0.0276 0.08,0.0553 0.1,0.0967 z"
           style="display:inline;fill:#f68e8e;stroke-width:0.83123;fill-opacity:1"
           id="path2" /><g
           id="g10"
           style="display:inline"><g
             id="g4"
             style="display:none"><path
               d="m 46.92,81.07 c 0,4.59 -3.31,8.3 -7.38,8.3 -4.07,0 -7.38,-3.72 -7.38,-8.3 0,-4.6 3.31,-8.31 7.38,-8.31 4.07,-0.01 7.38,3.71 7.38,8.31 z"
               style="fill:#2f2f2f"
               id="path3" /><path
               d="m 81.26,81.07 c 0,4.59 3.3,8.3 7.38,8.3 4.07,0 7.38,-3.72 7.38,-8.3 0,-4.6 -3.31,-8.31 -7.38,-8.31 -4.07,-0.01 -7.38,3.71 -7.38,8.31 z"
               style="fill:#2f2f2f"
               id="path4" /></g><path
             d="m 64.48,101.33 c -0.77,0 -1.39,-0.62 -1.39,-1.39 v -8.15 c 0,-0.77 0.62,-1.39 1.39,-1.39 0.77,0 1.39,0.62 1.39,1.39 v 8.15 c 0,0.77 -0.62,1.39 -1.39,1.39 z"
             style="display:inline;fill:#000000;fill-opacity:1"
             id="path5" /><g
             id="g7"
             style="stroke-width:1.0004945;stroke-dasharray:none"><path
               d="m 57.49,104.6 c -0.43,0 -0.89,-0.02 -1.36,-0.06 -5.66,-0.5 -8.15,-4.89 -8.68,-7.15 -0.21,-0.92 0.36,-1.84 1.28,-2.05 0.92,-0.22 1.83,0.35 2.05,1.27 0.05,0.21 1.11,4.12 5.65,4.53 4.75,0.43 6.59,-2.06 6.67,-2.17 0.55,-0.76 1.6,-0.95 2.37,-0.42 0.77,0.53 0.97,1.57 0.45,2.35 -0.11,0.16 -2.57,3.7 -8.43,3.7 z"
               style="fill:#000000;stroke-width:1.0004945;stroke-dasharray:none;fill-opacity:1"
               id="path6" /><path
               d="m 71.52,104.6 c -5.86,0 -8.32,-3.54 -8.43,-3.7 -0.53,-0.78 -0.32,-1.85 0.46,-2.38 0.79,-0.53 1.85,-0.32 2.38,0.46 0.06,0.08 1.93,2.57 6.65,2.15 4.63,-0.41 5.64,-4.48 5.65,-4.52 0.22,-0.92 1.14,-1.49 2.05,-1.28 0.92,0.22 1.49,1.13 1.28,2.05 -0.53,2.25 -3.03,6.65 -8.68,7.15 -0.48,0.05 -0.93,0.07 -1.36,0.07 z"
               style="fill:#000000;stroke-width:1.0004945;stroke-dasharray:none;fill-opacity:1"
               id="path7" /></g><g
             id="g9"
             style="stroke-width:1.0004945;stroke-dasharray:none"><path
               d="m 59.22,91.73 c 0.08,1.05 0.79,2.15 1.89,2.82 0.88,0.55 2.13,0.82 3.36,0.82 1.22,0 2.47,-0.27 3.35,-0.82 1.1,-0.68 1.81,-1.77 1.89,-2.82 0.08,-1 -0.15,-2.02 -1.24,-2.72 -0.6,-0.39 -1.35,-0.65 -2.12,-0.79 -0.29,-0.05 -1.05,-0.18 -1.85,-0.18 -0.79,0 -1.62,0.12 -1.92,0.18 -0.77,0.14 -1.52,0.4 -2.12,0.79 -1.08,0.71 -1.32,1.72 -1.24,2.72 z"
               style="fill:#000000;stroke-width:1.0004945;stroke-dasharray:none;fill-opacity:1"
               id="path8" /><path
               d="m 64.43,96.86 c -1.54,0 -3.04,-0.38 -4.11,-1.04 -1.47,-0.91 -2.47,-2.43 -2.59,-3.97 -0.17,-2.24 0.96,-3.45 1.92,-4.08 0.74,-0.47 1.66,-0.82 2.66,-1 0.4,-0.08 1.31,-0.2 2.18,-0.2 0.94,0 1.8,0.14 2.12,0.2 1,0.18 1.92,0.53 2.65,1 0.97,0.63 2.1,1.85 1.92,4.09 -0.12,1.53 -1.11,3.05 -2.59,3.97 -1.07,0.66 -2.57,1.04 -4.11,1.04 h -0.05 z m 0.07,-7.33 c -0.68,0 -1.41,0.11 -1.64,0.15 -0.62,0.12 -1.19,0.32 -1.59,0.58 -0.39,0.25 -0.62,0.57 -0.56,1.35 0.05,0.6 0.51,1.25 1.19,1.67 0.61,0.38 1.56,0.6 2.55,0.6 v 1.49 l 0.02,-1.49 v 0 c 1.03,0 1.98,-0.23 2.58,-0.6 0.67,-0.41 1.15,-1.08 1.19,-1.67 0.07,-0.78 -0.17,-1.1 -0.56,-1.35 C 67.28,90 66.71,89.8 66.1,89.68 65.93,89.66 65.22,89.53 64.5,89.53 Z"
               style="fill:#000000;stroke-width:1.0004945;stroke-dasharray:none;fill-opacity:1"
               id="path9" /></g></g></g><path
         d="m 64.48,109.46609 c -2.83,0 -5.55,-1.22205 -6.76,-3.14431 -0.56,-0.89178 -1.69,-3.23019 -1.74,-3.32928 -0.3,-0.61433 0.22,-1.2749 1.15,-1.47307 0.93,-0.19817 1.93,0.14533 2.23,0.75966 0.39,0.8059 1.23,2.50356 1.63,3.1377 0.62,0.98426 2.26,1.90245 4.05,1.67125 1.64,-0.21138 2.72,-1.07013 3.5,-2.7744 0.1,-0.2312 0.31,-0.75305 0.51,-1.24187 0.15,-0.38313 0.3,-0.75305 0.38,-0.94462 0.27,-0.62094 1.23,-0.98425 2.19,-0.80589 0.94,0.17835 1.49,0.82571 1.22,1.44664 -0.08,0.18497 -0.22,0.53507 -0.37,0.90499 -0.2,0.50864 -0.42,1.05691 -0.54,1.31453 -0.44,0.95123 -1.76,3.8181 -6.21,4.3994 -0.4,0.0529 -0.82,0.0793 -1.24,0.0793 z"
         style="display:inline;fill:#000000;stroke-width:0.812755;fill-opacity:1"
         id="path11" /></g><path
       d="m 125.47,86.16 -8.27,-1.49 c 0.1,-1.84 0.09,-3.7 0,-5.56 l 8.4,-1.25 c 1.17,-0.17 1.97,-1.26 1.8,-2.42 -0.17,-1.16 -1.26,-1.96 -2.42,-1.8 l -8.18,1.22 c -0.9,-5.98 -3.2,-11.94 -6.68,-17.31 1.05,-10.02 3.06,-37.18 -5.09,-42.65 -6.5,-4.36 -21.96,11.82 -26.94,17.63 -1.15,1.34 -2.2,2.55 -3.16,3.65 -3.48,-0.53 -7.02,-0.82 -10.55,-0.82 -3.53,-0.01 -7.06,0.29 -10.54,0.82 -0.96,-1.1 -2.01,-2.31 -3.16,-3.65 C 45.7,26.72 30.24,10.54 23.75,14.9 15.6,20.37 17.62,47.53 18.66,57.55 15.19,62.91 12.87,68.88 11.98,74.86 L 3.8,73.64 C 2.64,73.48 1.55,74.27 1.37,75.44 1.19,76.6 2,77.69 3.16,77.86 l 8.4,1.25 c -0.09,1.86 -0.1,3.72 0,5.56 L 3.3,86.16 c -1.16,0.21 -1.93,1.32 -1.72,2.48 0.19,1.03 1.08,1.75 2.1,1.75 0.12,0 0.25,-0.01 0.38,-0.03 L 12,88.93 c 0.33,2.1 0.81,4.17 1.5,6.18 l -6.48,2.05 c -1.12,0.36 -1.74,1.56 -1.39,2.68 0.29,0.91 1.13,1.49 2.03,1.49 0.22,0 0.43,-0.03 0.65,-0.1 l 6.85,-2.17 c 1.98,3.89 4.88,7.47 8.98,10.53 6.05,4.51 13.57,7.57 21.33,9.23 2.94,0.63 10.56,2.1 18.55,2.1 7.99,0 16.35,-1.47 19.3,-2.1 7.75,-1.66 15.28,-4.72 21.33,-9.23 4.1,-3.06 7,-6.64 8.98,-10.53 l 6.84,2.17 c 0.22,0.07 0.43,0.1 0.65,0.1 0.9,0 1.74,-0.58 2.03,-1.49 0.36,-1.12 -0.26,-2.32 -1.38,-2.68 l -6.48,-2.06 c 0.69,-2 1.18,-4.07 1.5,-6.18 l 7.95,1.43 c 0.12,0.02 0.25,0.03 0.38,0.03 1.01,0 1.91,-0.73 2.1,-1.75 0.18,-1.15 -0.6,-2.26 -1.75,-2.47 z"
       style="display:none;fill:none;fill-opacity:1;stroke:#000000;stroke-width:2.11826;stroke-dasharray:none;stroke-opacity:1"
       id="path14" /></g><g
     id="g14"
     transform="matrix(1.2,0,0,1.2,-13.091952,-15.364835)"><circle
       fill="#f5f8fa"
       cx="85.412712"
       cy="76.824173"
       r="17.912584"
       id="circle3"
       style="stroke-width:3.25683" /><circle
       fill="#f5f8fa"
       cx="43.073875"
       cy="76.824173"
       r="17.912584"
       id="circle4"
       style="stroke-width:3.25683" /><circle
       fill="#292f33"
       cx="43.073875"
       cy="76.824173"
       r="13.239655"
       id="circle5"
       style="stroke-width:5.29584;fill:#000000" /><circle
       fill="#292f33"
       cx="85.412712"
       cy="76.824173"
       r="13.239655"
       id="circle6"
       style="stroke-width:5.29584;fill:#000000" /></g></svg>
